# Blender3D v249 OBJ File: sib2010-sep.blend
# www.blender3d.org
mtllib A.mtl
v -0.109696 0.116000 0.054000
v -0.085778 0.100000 0.038000
v -0.007696 0.116000 -0.193000
v -0.007141 0.100000 -0.152425
v 0.102304 0.116000 0.054000
v 0.077664 0.100000 0.038000
v -0.085778 0.100000 0.038000
v -0.085778 -0.100000 0.038000
v -0.007141 0.100000 -0.152425
v -0.007141 -0.100000 -0.152425
v 0.077664 0.100000 0.038000
v 0.077664 -0.100000 0.038000
v -0.085778 -0.100000 0.038000
v -0.109696 -0.116000 0.054000
v -0.007141 -0.100000 -0.152425
v -0.007696 -0.116000 -0.193000
v 0.077664 -0.100000 0.038000
v 0.102304 -0.116000 0.054000
v 0.333304 0.116000 0.343000
v 0.357928 0.100000 0.359000
v 0.028304 0.116000 -0.343000
v 0.038701 0.100000 -0.359000
v -0.040696 0.116000 -0.343000
v -0.051260 0.100000 -0.359000
v -0.333696 0.116000 0.343000
v -0.357928 0.100000 0.359000
v -0.233696 0.116000 0.343000
v -0.223139 0.100000 0.359000
v -0.147696 0.116000 0.142000
v -0.137139 0.100000 0.158000
v 0.142304 0.116000 0.142000
v 0.131985 0.100000 0.158000
v 0.233304 0.116000 0.343000
v 0.222985 0.100000 0.359000
v 0.357928 0.100000 0.359000
v 0.357928 -0.100000 0.359000
v 0.038701 0.100000 -0.359000
v 0.038701 -0.100000 -0.359000
v -0.051260 0.100000 -0.359000
v -0.051260 -0.100000 -0.359000
v -0.357928 0.100000 0.359000
v -0.357928 -0.100000 0.359000
v -0.223139 0.100000 0.359000
v -0.223139 -0.100000 0.359000
v -0.137139 0.100000 0.158000
v -0.137139 -0.100000 0.158000
v 0.131985 0.100000 0.158000
v 0.131985 -0.100000 0.158000
v 0.222985 0.100000 0.359000
v 0.222985 -0.100000 0.359000
v 0.357928 -0.100000 0.359000
v 0.333304 -0.116000 0.343000
v 0.038701 -0.100000 -0.359000
v 0.028304 -0.116000 -0.343000
v -0.051260 -0.100000 -0.359000
v -0.040696 -0.116000 -0.343000
v -0.357928 -0.100000 0.359000
v -0.333696 -0.116000 0.343000
v -0.223139 -0.100000 0.359000
v -0.233696 -0.116000 0.343000
v -0.137139 -0.100000 0.158000
v -0.147696 -0.116000 0.142000
v 0.131985 -0.100000 0.158000
v 0.142304 -0.116000 0.142000
v 0.222985 -0.100000 0.359000
v 0.233304 -0.116000 0.343000
v -0.109696 -0.116000 0.054000
v -0.007696 -0.116000 -0.193000
v 0.102304 -0.116000 0.054000
v 0.333304 -0.116000 0.343000
v 0.028304 -0.116000 -0.343000
v -0.040696 -0.116000 -0.343000
v -0.333696 -0.116000 0.343000
v -0.233696 -0.116000 0.343000
v -0.147696 -0.116000 0.142000
v 0.142304 -0.116000 0.142000
v 0.233304 -0.116000 0.343000
v -0.109696 0.116000 0.054000
v -0.007696 0.116000 -0.193000
v 0.102304 0.116000 0.054000
v 0.333304 0.116000 0.343000
v 0.028304 0.116000 -0.343000
v -0.040696 0.116000 -0.343000
v -0.333696 0.116000 0.343000
v -0.233696 0.116000 0.343000
v -0.147696 0.116000 0.142000
v 0.142304 0.116000 0.142000
v 0.233304 0.116000 0.343000
vn 0.000000 0.707107 -0.707107
vn 0.653572 0.707106 0.269896
vn 0.653572 0.707107 0.269896
vn -0.645947 0.707107 0.287668
vn 0.000000 -0.000000 -1.000000
vn 0.924290 0.000000 0.381691
vn -0.913506 0.000000 0.406825
vn 0.000000 -0.707107 -0.707107
vn 0.653572 -0.707107 0.269896
vn -0.645946 -0.707107 0.287669
vn 0.000000 0.707107 0.707107
vn 0.646124 0.707107 -0.287271
vn 0.646123 0.707107 -0.287270
vn 0.000000 0.707106 -0.707107
vn -0.650276 0.707107 -0.277742
vn -0.650277 0.707106 -0.277742
vn 0.650101 0.707107 0.278153
vn -0.644165 0.707107 0.291637
vn 0.000000 0.000000 1.000000
vn 0.913757 0.000000 -0.406262
vn -0.919630 0.000000 -0.392787
vn 0.919381 0.000000 0.393367
vn -0.910986 0.000000 0.412437
vn 0.000000 -0.707107 0.707107
vn 0.646124 -0.707107 -0.287271
vn 0.646123 -0.707107 -0.287270
vn 0.000000 -0.707106 -0.707107
vn -0.650276 -0.707107 -0.277742
vn -0.650277 -0.707106 -0.277742
vn 0.650101 -0.707107 0.278153
vn -0.644165 -0.707107 0.291637
vn 0.000000 1.000000 -0.000000
usemtl (null)
s off
f 1//1 6//1 2//1
f 1//1 5//1 6//1
f 3//2 2//2 4//2
f 3//3 1//3 2//3
f 5//4 4//4 6//4
f 5//4 3//4 4//4
f 7//5 12//5 8//5
f 7//5 11//5 12//5
f 9//6 8//6 10//6
f 9//6 7//6 8//6
f 11//7 10//7 12//7
f 11//7 9//7 10//7
f 13//8 18//8 14//8
f 13//8 17//8 18//8
f 15//9 14//9 16//9
f 15//9 13//9 14//9
f 17//10 16//10 18//10
f 17//10 15//10 16//10
f 19//11 34//11 20//11
f 19//11 33//11 34//11
f 21//12 20//12 22//12
f 21//13 19//13 20//13
f 23//14 22//14 24//14
f 23//14 21//14 22//14
f 25//15 24//15 26//15
f 25//16 23//16 24//16
f 27//11 26//11 28//11
f 27//11 25//11 26//11
f 29//17 28//17 30//17
f 29//17 27//17 28//17
f 31//11 30//11 32//11
f 31//11 29//11 30//11
f 33//18 32//18 34//18
f 33//18 31//18 32//18
f 35//19 50//19 36//19
f 35//19 49//19 50//19
f 37//20 36//20 38//20
f 37//20 35//20 36//20
f 39//5 38//5 40//5
f 39//5 37//5 38//5
f 41//21 40//21 42//21
f 41//21 39//21 40//21
f 43//19 42//19 44//19
f 43//19 41//19 42//19
f 45//22 44//22 46//22
f 45//22 43//22 44//22
f 47//19 46//19 48//19
f 47//19 45//19 46//19
f 49//23 48//23 50//23
f 49//23 47//23 48//23
f 51//24 66//24 52//24
f 51//24 65//24 66//24
f 53//25 52//25 54//25
f 53//26 51//26 52//26
f 55//27 54//27 56//27
f 55//27 53//27 54//27
f 57//28 56//28 58//28
f 57//29 55//29 56//29
f 59//24 58//24 60//24
f 59//24 57//24 58//24
f 61//30 60//30 62//30
f 61//30 59//30 60//30
f 63//24 62//24 64//24
f 63//24 61//24 62//24
f 65//31 64//31 66//31
f 65//31 63//31 64//31
f 77//32 70//32 76//32
f 73//32 74//32 75//32
f 76//32 70//32 69//32
f 75//32 76//32 69//32
f 75//32 69//32 67//32
f 73//32 75//32 67//32
f 69//32 70//32 68//32
f 73//32 67//32 68//32
f 68//32 70//32 71//32
f 73//32 68//32 71//32
f 73//32 71//32 72//32
f 88//32 81//32 87//32
f 84//32 85//32 86//32
f 87//32 81//32 80//32
f 86//32 87//32 80//32
f 86//32 80//32 78//32
f 84//32 86//32 78//32
f 80//32 81//32 79//32
f 84//32 78//32 79//32
f 79//32 81//32 82//32
f 84//32 79//32 82//32
f 84//32 82//32 83//32
