# Blender3D v246 OBJ File: clipper.blend
# www.blender3d.org
mtllib clipper.mtl
o None_ClipperS_1
v 0.900000 0.175000 1.000000
v 0.870000 0.150000 0.900000
v 0.900000 0.150000 1.000000
v -0.900000 0.175000 1.000000
v -0.870000 0.150000 0.900000
v -0.870000 0.175000 0.900000
v -0.900000 0.162500 1.010000
v -0.900000 0.150000 1.000000
v 0.174608 0.313009 0.750000
v 0.193357 0.175000 1.446667
v 0.174209 0.314342 1.446667
v 0.160757 0.309160 1.753333
v 0.115832 0.408684 0.750000
v 0.120556 0.426085 1.446667
v 0.111247 0.416747 1.753333
v 0.043125 0.454869 0.750000
v 0.043026 0.457571 1.446667
v 0.039704 0.447062 1.753333
v -0.043125 0.454869 0.750000
v -0.043026 0.457571 1.446667
v -0.039704 0.447062 1.753333
v -0.115832 0.408684 0.750000
v -0.120556 0.426085 1.446667
v -0.111247 0.416747 1.753333
v -0.174608 0.313009 0.750000
v -0.174209 0.314342 1.446667
v -0.160757 0.309160 1.753333
v -0.193800 0.175000 0.750000
v -0.193357 0.175000 1.446667
v -0.178427 0.175000 1.753333
v -0.340000 0.162500 1.310000
v -0.330000 0.175000 1.300000
v -0.330000 0.150000 1.300000
v 0.340000 0.162500 1.310000
v 0.900000 0.162500 1.010000
v 0.330000 0.150000 1.300000
v 0.330000 0.175000 1.300000
v 0.193800 0.175000 0.750000
v 0.210000 0.175000 0.900000
v -0.200000 0.175000 0.900000
v -0.870000 0.162500 0.900000
v -0.865000 0.150000 0.870000
v -0.865000 0.162500 0.870000
v 0.870000 0.162500 0.900000
v 0.865000 0.150000 0.870000
v 0.865000 0.162500 0.870000
v 0.200000 0.150000 0.600000
v 0.200000 0.162500 0.600000
v 0.210000 0.162500 0.900000
v -0.210000 0.175000 0.900000
v -0.210000 0.162500 0.900000
v -0.200000 0.162500 0.600000
v 0.187097 0.175000 0.470000
v 0.168569 0.293584 0.470000
v 0.091653 0.388681 0.470000
v -0.091653 0.388681 0.470000
v -0.187097 0.175000 0.470000
v -0.168569 0.293584 0.470000
v 0.000000 0.454869 0.750000
v 0.000000 0.530000 0.470000
v 0.045000 0.520000 0.470000
v 0.075000 0.490000 0.470000
v -0.045000 0.520000 0.470000
v -0.075000 0.490000 0.470000
v -0.200000 0.150000 0.600000
v 0.000000 0.285000 -0.250000
v 0.025000 0.530000 0.130000
v -0.025000 0.530000 0.130000
v 0.108581 0.368892 0.140000
v 0.070711 0.275568 -0.070000
v 0.142454 0.277079 0.140000
v 0.048933 0.328101 -0.070000
v -0.142454 0.277079 0.140000
v -0.070711 0.275568 -0.070000
v -0.108581 0.368892 0.140000
v -0.048933 0.328101 -0.070000
v 0.000000 0.550000 0.180000
v -0.060000 0.535000 0.167500
v 0.060000 0.535000 0.167500
v 0.000000 0.550000 0.310000
v -0.060000 0.535000 0.310000
v -0.085000 0.505000 0.310000
v -0.085000 0.505000 0.175000
v -0.100000 0.445000 0.145000
v 0.085000 0.505000 0.310000
v 0.085000 0.505000 0.175000
v 0.100000 0.445000 0.145000
v 0.060000 0.535000 0.310000
v 0.100000 0.185000 0.140000
v -0.100000 0.185000 0.140000
v 0.138112 0.200000 0.140000
v -0.138112 0.200000 0.140000
v -0.040000 0.235000 -0.070000
v 0.040000 0.235000 -0.070000
v 0.068483 0.240000 -0.070000
v -0.068483 0.240000 -0.070000
v 0.178427 0.175000 1.753333
v 0.135377 0.294349 2.150000
v 0.093684 0.390059 2.150000
v 0.033435 0.417027 2.150000
v -0.033435 0.417027 2.150000
v -0.093684 0.390059 2.150000
v -0.135377 0.294349 2.150000
v -0.150257 0.175000 2.150000
v -0.150257 0.150000 2.150000
v -0.160257 0.162500 2.150000
v 0.150257 0.150000 2.150000
v 0.150257 0.175000 2.150000
v 0.160257 0.162500 2.150000
v 0.102315 0.175000 2.753333
v -0.102315 0.175000 2.753333
v -0.025948 0.358354 2.596667
v -0.072706 0.337923 2.596667
v -0.105063 0.265416 2.596667
v 0.105063 0.265416 2.596667
v 0.116611 0.175000 2.596667
v 0.072706 0.337923 2.596667
v 0.025948 0.358354 2.596667
v 0.092182 0.243012 2.753333
v 0.033242 0.175000 3.230000
v 0.029950 0.186469 3.240000
v 0.063792 0.297553 2.753333
v 0.020726 0.193686 3.247500
v 0.022767 0.319128 2.753333
v 0.007397 0.196361 3.250000
v -0.022767 0.319128 2.753333
v -0.007397 0.196361 3.250000
v -0.063792 0.297553 2.753333
v -0.020726 0.193686 3.247500
v -0.092182 0.243012 2.753333
v -0.029950 0.186469 3.240000
v -0.116611 0.175000 2.596667
v -0.033242 0.175000 3.230000
v 0.870000 0.175000 0.900000
vn 0.942015 0.299570 0.150975
vn 0.879696 -0.379894 0.285928
vn 0.971099 0.000000 -0.238624
vn -0.907529 0.280465 0.312571
vn -0.957823 0.000000 -0.287332
vn -0.971099 0.000000 -0.238624
vn -0.736625 0.000000 0.676260
vn -0.905728 -0.281991 0.316355
vn 0.914121 0.403760 -0.035859
vn 0.942442 0.333934 0.016511
vn 0.679586 0.733573 0.001923
vn 0.958953 0.277261 0.059084
vn 0.745201 0.664327 -0.057619
vn 0.686636 0.726890 0.011292
vn 0.686422 0.724662 0.060549
vn 0.294198 0.951476 -0.089938
vn 0.197607 0.980132 0.016572
vn 0.194555 0.979247 0.056398
vn -0.292154 0.952178 -0.089328
vn -0.197607 0.980102 0.016938
vn -0.198431 0.978484 0.056398
vn -0.745201 0.664327 -0.057619
vn -0.686636 0.726890 0.011292
vn -0.686422 0.724662 0.060549
vn -0.914121 0.403760 -0.035859
vn -0.942442 0.333934 0.016511
vn -0.958953 0.277261 0.059084
vn -0.740898 0.671468 -0.013123
vn -0.679586 0.733573 0.001923
vn -0.989868 0.128422 0.060366
vn -0.807978 0.000000 0.589190
vn -0.497360 0.729728 0.469131
vn -0.497360 -0.729728 0.469131
vn 0.807978 0.000000 0.589190
vn 0.497360 -0.729728 0.469131
vn 0.471389 0.000000 0.881893
vn 0.497360 0.729728 0.469131
vn 0.695517 0.717093 -0.044740
vn 0.663045 0.748375 -0.016266
vn 0.000000 1.000000 0.000000
vn -0.986389 0.000000 -0.164373
vn -0.777673 0.000000 -0.628620
vn -0.783502 0.000000 -0.621326
vn 0.986389 0.000000 -0.164373
vn 0.783502 0.000000 -0.621326
vn 0.777673 0.000000 -0.628620
vn 0.798029 0.000000 -0.602588
vn 0.898190 0.362072 -0.249214
vn 0.999420 0.000000 -0.033296
vn -0.861385 0.505448 -0.049745
vn -0.898190 0.362072 -0.249214
vn -0.999420 0.000000 -0.033296
vn 0.969115 -0.215949 -0.119022
vn 0.949644 0.306223 -0.065889
vn 0.545213 0.826746 -0.138524
vn -0.545213 0.826746 -0.138524
vn -0.968261 -0.219703 -0.119053
vn -0.949644 0.306223 -0.065889
vn 0.000000 0.960021 0.279824
vn 0.507279 0.840541 0.190069
vn 0.000000 0.982818 0.184423
vn 0.694266 0.694266 0.189489
vn -0.507279 0.840541 0.190069
vn -0.694266 0.694266 0.189489
vn -0.798029 0.000000 -0.602588
vn 0.000000 -0.752922 -0.658071
vn -0.046266 0.916501 -0.397259
vn 0.046266 0.916501 -0.397259
vn 0.893429 0.432081 -0.122532
vn 0.969115 0.138218 -0.204199
vn 0.929594 0.146397 -0.338237
vn 0.874630 0.362560 -0.321726
vn -0.969115 0.138218 -0.204199
vn -0.893429 0.432081 -0.122532
vn -0.929594 0.146397 -0.338237
vn -0.874630 0.362560 -0.321726
vn 0.000000 0.988861 -0.148747
vn -0.437452 0.897794 -0.050478
vn 0.437452 0.897794 -0.050478
vn 0.000000 0.998077 0.061953
vn -0.520951 0.851009 0.065828
vn -0.850765 0.524613 0.030305
vn -0.891629 0.452742 0.000000
vn -0.970122 0.242531 0.000000
vn 0.850765 0.524613 0.030305
vn 0.970122 0.242531 0.000000
vn 0.891629 0.452742 0.000000
vn 0.520951 0.851009 0.065828
vn -0.176153 -0.969329 -0.171178
vn 0.173467 -0.969939 -0.170598
vn 0.847316 -0.471847 -0.243629
vn -0.847316 -0.471847 -0.243629
vn -0.079104 -0.960387 -0.267159
vn 0.080813 -0.960021 -0.267922
vn 0.687124 -0.618580 -0.380993
vn -0.687124 -0.618580 -0.380993
vn 0.959716 0.269997 0.077303
vn 0.989868 0.128422 0.060366
vn 0.699362 0.708060 0.097324
vn 0.206061 0.972961 0.104038
vn -0.202307 0.973754 0.104068
vn -0.699362 0.708060 0.097324
vn -0.959716 0.269997 0.077303
vn -0.808130 0.570605 0.145848
vn -0.857112 -0.485794 0.171178
vn -0.977844 0.000000 0.209235
vn 0.818476 -0.549669 0.167028
vn 0.808130 0.570605 0.145848
vn 0.977844 0.000000 0.209235
vn 0.879757 0.466811 0.089877
vn -0.922788 0.372234 0.099155
vn -0.211035 0.968688 0.130741
vn -0.719840 0.675436 0.159795
vn -0.947783 0.300119 0.107608
vn 0.947783 0.300119 0.107608
vn 0.987213 0.132542 0.088290
vn 0.719840 0.675436 0.159795
vn 0.206977 0.969543 0.130772
vn 0.947020 0.291208 0.135350
vn 0.880490 0.441420 0.172826
vn 0.978210 0.150822 0.142460
vn 0.715598 0.667592 0.205420
vn 0.485305 0.844905 0.224860
vn 0.245064 0.939543 0.239051
vn 0.113926 0.963622 0.241707
vn -0.241035 0.940550 0.239204
vn -0.117832 0.963134 0.241707
vn -0.715598 0.667592 0.205420
vn -0.485305 0.844905 0.224860
vn -0.947020 0.291208 0.135350
vn -0.880490 0.441420 0.172826
vn -0.987213 0.132542 0.088290
vn -0.978210 0.150822 0.142460
vn 0.957823 0.000000 -0.287332
usemtl ClipperS_1
s 1
f 1//1 3//2 2//3
s 1
f 4//4 6//5 5//6
s 1
f 7//7 4//4 8//8
s 1
f 9//9 11//10 10//11
s 1
f 11//10 12//12 10//11
s 1
f 13//13 14//14 11//10
s 1
f 14//14 15//15 11//10
s 1
f 16//16 17//17 14//14
s 1
f 17//17 18//18 15//15
s 1
f 19//19 20//20 17//17
s 1
f 20//20 21//21 18//18
s 1
f 22//22 23//23 19//19
s 1
f 23//23 24//24 20//20
s 1
f 25//25 26//26 22//22
s 1
f 26//26 27//27 24//24
s 1
f 28//28 29//29 25//25
s 1
f 29//29 30//30 27//27
s 1
f 31//31 32//32 7//7
s 1
f 31//31 7//7 33//33
s 1
f 34//34 36//35 35//36
s 1
f 34//34 35//36 37//37
s 1
f 10//11 39//38 38//39
s 1
f 29//29 28//28 40//40
s 1
f 41//41 43//42 42//43
s 1
f 44//44 2//3 45//45
s 1
f 46//46 45//45 47//47
s 1
f 48//48 38//39 39//38
s 1
f 39//38 49//49 48//48
s 1
f 50//50 52//51 51//52
s 1
f 52//51 50//50 28//28
s 1
f 53//53 54//54 38//39
s 1
f 9//9 54//54 55//55
s 1
f 25//25 22//22 56//56
s 1
f 57//57 28//28 58//58
s 1
f 59//59 61//60 60//61
s 1
f 61//60 59//59 62//62
s 1
f 63//63 64//64 59//59
s 1
f 59//59 60//61 63//63
s 1
f 22//22 19//19 56//56
s 1
f 13//13 55//55 16//16
s 1
f 59//59 56//56 19//19
s 1
f 59//59 16//16 55//55
s 1
f 38//39 48//48 53//53
s 1
f 28//28 57//57 52//51
s 1
f 48//48 47//47 53//53
s 1
f 52//51 57//57 65//65
s 1
f 66//66 68//67 67//68
s 1
f 69//69 71//70 70//71
s 1
f 72//72 70//71 66//66
s 1
f 73//73 75//74 74//75
s 1
f 74//75 76//76 66//66
s 1
f 77//77 67//68 68//67
s 1
f 77//77 68//67 78//78
s 1
f 77//77 79//79 67//68
s 1
f 80//80 77//77 81//81
s 1
f 81//81 77//77 78//78
s 1
f 81//81 78//78 82//82
s 1
f 78//78 83//83 82//82
s 1
f 82//82 83//83 84//84
s 1
f 85//85 87//86 86//87
s 1
f 79//79 85//85 86//87
s 1
f 88//88 85//85 79//79
s 1
f 88//88 79//79 77//77
s 1
f 80//80 88//88 77//77
s 1
f 58//58 56//56 75//74
s 1
f 55//55 54//54 69//69
s 1
f 62//62 85//85 61//60
s 1
f 61//60 85//85 88//88
s 1
f 60//61 88//88 80//80
s 1
f 60//61 61//60 88//88
s 1
f 60//61 81//81 63//63
s 1
f 60//61 80//80 81//81
s 1
f 63//63 81//81 82//82
s 1
f 64//64 63//63 82//82
s 1
f 57//57 90//89 89//90
s 1
f 89//90 91//91 53//53
s 1
f 90//89 57//57 92//92
s 1
f 93//93 94//94 89//90
s 1
f 95//95 91//91 89//90
s 1
f 96//96 93//93 90//89
s 1
f 66//66 95//95 94//94
s 1
f 66//66 94//94 93//93
s 1
f 66//66 93//93 96//96
s 1
f 71//70 91//91 95//95
s 1
f 70//71 95//95 66//66
s 1
f 92//92 73//73 96//96
s 1
f 96//96 74//75 66//66
s 1
f 57//57 58//58 92//92
s 1
f 54//54 53//53 91//91
s 1
f 12//12 98//97 97//98
s 1
f 15//15 99//99 12//12
s 1
f 18//18 100//100 15//15
s 1
f 21//21 101//101 18//18
s 1
f 24//24 102//102 101//101
s 1
f 27//27 103//103 102//102
s 1
f 30//30 104//104 103//103
s 1
f 104//104 32//32 31//31
s 1
f 105//105 106//106 31//31
s 1
f 107//107 36//35 34//34
s 1
f 108//108 109//109 34//34
s 1
f 110//110 105//105 111//111
s 1
f 101//101 102//102 112//112
s 1
f 102//102 103//103 113//113
s 1
f 114//114 103//103 104//104
s 1
f 115//115 116//116 108//108
s 1
f 99//99 117//117 98//97
s 1
f 100//100 118//118 99//99
s 1
f 118//118 100//100 101//101
s 1
f 115//115 119//119 116//116
s 1
f 119//119 121//120 120//121
s 1
f 117//117 122//122 115//115
s 1
f 122//122 123//123 121//120
s 1
f 124//124 125//125 123//123
s 1
f 126//126 127//127 125//125
s 1
f 128//128 129//129 126//126
s 1
f 114//114 130//130 128//128
s 1
f 130//130 131//131 128//128
s 1
f 132//132 111//111 130//130
s 1
f 111//111 133//133 130//130
s 1
f 124//124 122//122 117//117
s 1
f 126//126 113//113 128//128
s 1
f 43//42 52//51 65//65
s 1
f 134//134 1//1 2//3
s 1
f 5//6 8//8 4//4
s 1
f 10//11 38//39 9//9
s 1
f 12//12 97//98 10//11
s 1
f 11//10 9//9 13//13
s 1
f 15//15 12//12 11//10
s 1
f 14//14 13//13 16//16
s 1
f 15//15 14//14 17//17
s 1
f 17//17 16//16 19//19
s 1
f 18//18 17//17 20//20
s 1
f 23//23 20//20 19//19
s 1
f 24//24 21//21 20//20
s 1
f 26//26 23//23 22//22
s 1
f 24//24 23//23 26//26
s 1
f 29//29 26//26 25//25
s 1
f 27//27 26//26 29//29
s 1
f 32//32 4//4 7//7
s 1
f 7//7 8//8 33//33
s 1
f 36//35 3//2 35//36
s 1
f 35//36 1//1 37//37
s 1
f 42//43 5//6 41//41
s 1
f 45//45 46//46 44//44
s 1
f 47//47 48//48 46//46
s 1
f 54//54 9//9 38//39
s 1
f 55//55 13//13 9//9
s 1
f 56//56 58//58 25//25
s 1
f 28//28 25//25 58//58
s 1
f 70//71 72//72 69//69
s 1
f 75//74 76//76 74//75
s 1
f 75//74 73//73 58//58
s 1
f 54//54 71//70 69//69
s 1
f 89//90 53//53 57//57
s 1
f 89//90 90//89 93//93
s 1
f 89//90 94//94 95//95
s 1
f 90//89 92//92 96//96
s 1
f 95//95 70//71 71//70
s 1
f 73//73 74//75 96//96
s 1
f 58//58 73//73 92//92
s 1
f 91//91 71//70 54//54
s 1
f 98//97 108//108 97//98
s 1
f 99//99 98//97 12//12
s 1
f 100//100 99//99 15//15
s 1
f 101//101 100//100 18//18
s 1
f 101//101 21//21 24//24
s 1
f 102//102 24//24 27//27
s 1
f 103//103 27//27 30//30
s 1
f 31//31 106//106 104//104
s 1
f 31//31 33//33 105//105
s 1
f 34//34 109//109 107//107
s 1
f 34//34 37//37 108//108
s 1
f 105//105 110//110 107//107
s 1
f 102//102 113//113 112//112
s 1
f 103//103 114//114 113//113
s 1
f 104//104 132//132 114//114
s 1
f 108//108 98//97 115//115
s 1
f 117//117 115//115 98//97
s 1
f 118//118 117//117 99//99
s 1
f 101//101 112//112 118//118
s 1
f 119//119 110//110 116//116
s 1
f 120//121 110//110 119//119
s 1
f 122//122 119//119 115//115
s 1
f 121//120 119//119 122//122
s 1
f 123//123 122//122 124//124
s 1
f 125//125 124//124 126//126
s 1
f 129//129 127//127 126//126
s 1
f 128//128 113//113 114//114
s 1
f 131//131 129//129 128//128
s 1
f 130//130 114//114 132//132
s 1
f 133//133 131//131 130//130
s 1
f 65//65 42//43 43//42
o None_ClipperS_3
v -0.025948 0.358354 2.596667
v 0.025000 0.340000 2.620000
v -0.025000 0.340000 2.620000
v 0.025948 0.358354 2.596667
v 0.072706 0.337923 2.596667
v -0.072706 0.337923 2.596667
vn 0.000000 0.785985 0.618245
vn 0.322303 0.737632 0.593312
vn -0.322303 0.737632 0.593312
usemtl ClipperS_3
s 1
f 135//135 137//135 136//135
f 138//136 136//136 139//136
f 135//137 140//137 137//137
f 138//135 135//135 136//135
o None_ClipperS_2
v 0.000000 0.454869 0.750000
v 0.075000 0.490000 0.470000
v 0.091653 0.388681 0.470000
v -0.091653 0.388681 0.470000
v -0.075000 0.490000 0.470000
v -0.200000 0.150000 0.600000
v 0.187097 0.175000 0.470000
v -0.187097 0.175000 0.470000
v 0.095000 0.405000 0.090000
v 0.000000 0.285000 -0.250000
v 0.048933 0.328101 -0.070000
v -0.095000 0.405000 0.090000
v -0.048933 0.328101 -0.070000
v 0.100000 0.445000 0.145000
v 0.108581 0.368892 0.140000
v -0.108581 0.368892 0.140000
v -0.100000 0.445000 0.145000
v -0.085000 0.505000 0.310000
v 0.085000 0.505000 0.310000
v 0.033242 0.175000 3.230000
v -0.102315 0.175000 2.753333
v -0.033242 0.175000 3.230000
v 0.330000 0.150000 1.300000
v -0.865000 0.150000 0.870000
v -0.330000 0.150000 1.300000
v 0.210000 0.162500 0.900000
v 0.865000 0.162500 0.870000
v 0.870000 0.162500 0.900000
v -0.210000 0.162500 0.900000
v -0.865000 0.162500 0.870000
v -0.200000 0.162500 0.600000
v 0.870000 0.175000 0.900000
v -0.870000 0.175000 0.900000
v -0.210000 0.175000 0.900000
v -0.330000 0.175000 1.300000
v -0.200000 0.175000 0.900000
v 0.193357 0.175000 1.446667
v 0.210000 0.175000 0.900000
v 0.330000 0.175000 1.300000
v 0.200000 0.150000 0.600000
v 0.102315 0.175000 2.753333
v 0.870000 0.150000 0.900000
v 0.900000 0.150000 1.000000
v 0.865000 0.150000 0.870000
v -0.870000 0.150000 0.900000
v -0.900000 0.150000 1.000000
v -0.150257 0.150000 2.150000
v 0.150257 0.150000 2.150000
v 0.200000 0.162500 0.600000
v -0.870000 0.162500 0.900000
v -0.900000 0.175000 1.000000
v -0.193357 0.175000 1.446667
v -0.150257 0.175000 2.150000
v 0.900000 0.175000 1.000000
v 0.150257 0.175000 2.150000
vn 0.949057 0.155989 0.273784
vn -0.949057 0.155989 0.273784
vn 0.000000 0.982006 0.188847
vn 0.966772 -0.064406 -0.247396
vn -0.966772 -0.064406 -0.247396
vn 0.976590 0.121760 -0.177334
vn 0.962530 -0.013041 -0.270862
vn -0.962530 -0.013041 -0.270862
vn -0.976590 0.121760 -0.177334
vn -0.992788 0.108602 0.050762
vn 0.992788 0.108602 0.050762
vn -0.983857 0.161709 0.076651
vn -0.992151 0.117096 0.043873
vn 0.983857 0.161709 0.076651
vn 0.992151 0.117096 0.043873
vn 0.000000 0.000000 -1.000000
vn 0.000000 0.000000 1.000000
usemtl ClipperS_2
s 1
f 141//138 143//138 142//138
f 141//139 145//139 144//139
f 146//140 147//140 148//140
f 149//141 151//141 150//141
f 152//142 150//142 153//142
f 154//143 155//143 149//143
f 149//144 155//144 151//144
f 152//145 153//145 156//145
f 157//146 152//146 156//146
f 158//147 157//147 156//147
f 159//148 155//148 154//148
f 145//149 158//149 144//149
f 144//150 158//150 156//150
f 142//151 143//151 159//151
f 143//152 155//152 159//152
f 160//40 161//40 162//40
f 163//40 164//40 165//40
f 166//40 168//40 167//40
f 169//40 171//40 170//40
f 172//153 168//153 166//153
f 173//154 169//154 174//154
f 175//40 176//40 173//40
f 177//40 179//40 178//40
f 147//140 146//140 180//140
f 161//40 160//40 181//40
f 182//40 163//40 183//40
f 146//40 184//40 180//40
f 165//40 185//40 186//40
f 163//40 187//40 188//40
f 146//40 182//40 184//40
f 165//40 164//40 185//40
f 146//40 163//40 182//40
f 163//40 165//40 187//40
f 164//40 163//40 146//40
f 167//40 189//40 166//40
f 170//40 190//40 169//40
f 166//153 178//153 172//153
f 169//154 173//154 190//154
f 173//40 191//40 175//40
f 175//40 193//40 192//40
f 175//40 192//40 176//40
f 194//40 172//40 178//40
f 177//40 195//40 179//40
f 179//40 194//40 178//40
o None_ClipperS_5
v -0.150257 0.150000 2.150000
v -0.160257 0.162500 2.150000
v -0.102315 0.175000 2.753333
v 0.150257 0.150000 2.150000
v 0.102315 0.175000 2.753333
v 0.160257 0.162500 2.150000
v -0.150257 0.175000 2.150000
v -0.116611 0.175000 2.596667
v 0.150257 0.175000 2.150000
v 0.116611 0.175000 2.596667
vn 0.777867 0.622294 -0.087597
vn -0.777867 0.622294 -0.087597
vn 0.779521 -0.623617 -0.058719
vn -0.779521 -0.623617 -0.058719
usemtl ClipperS_5
s 1
f 196//155 197//155 198//155
f 199//156 200//156 201//156
f 202//157 203//157 197//157
f 204//158 201//158 205//158
o None_ClipperS
v 0.900000 0.162500 1.010000
v 0.900000 0.175000 1.000000
v 0.900000 0.150000 1.000000
vn -1.000000 0.000000 0.000000
usemtl ClipperS
s 1
f 206//159 207//159 208//159
o None_ClipperS_4
v 0.025000 0.340000 2.620000
v 0.022767 0.319128 2.753333
v -0.025000 0.340000 2.620000
v 0.072706 0.337923 2.596667
v -0.072706 0.337923 2.596667
v -0.022767 0.319128 2.753333
v 0.070000 0.457500 0.190000
v 0.095000 0.405000 0.090000
v 0.100000 0.445000 0.145000
v 0.030000 0.457500 0.190000
v 0.025000 0.530000 0.130000
v 0.000000 0.285000 -0.250000
v -0.030000 0.457500 0.190000
v -0.025000 0.530000 0.130000
v -0.070000 0.457500 0.190000
v -0.100000 0.445000 0.145000
v -0.095000 0.405000 0.090000
v 0.060000 0.535000 0.167500
v 0.050000 0.482500 0.190000
v 0.085000 0.505000 0.175000
v 0.036000 0.475000 0.190000
v 0.064000 0.475000 0.190000
v 0.036000 0.441000 0.190000
v 0.050000 0.432500 0.190000
v 0.064000 0.441000 0.190000
v -0.064000 0.441000 0.190000
v -0.050000 0.432500 0.190000
v -0.036000 0.441000 0.190000
v -0.085000 0.505000 0.175000
v -0.064000 0.475000 0.190000
v -0.050000 0.482500 0.190000
v -0.036000 0.475000 0.190000
v -0.060000 0.535000 0.167500
vn 0.000000 0.987968 0.154660
vn 0.118750 0.980671 0.155507
vn -0.118750 0.980671 0.155507
vn -0.441580 0.744236 -0.501119
vn 0.997381 0.009443 -0.071705
vn -0.997381 0.009443 -0.071705
vn 0.441580 0.744236 -0.501119
vn -0.160110 -0.362916 -0.917963
vn 0.698494 -0.390150 -0.599908
vn 0.351942 -0.656962 -0.666737
vn 0.855866 -0.293440 -0.425895
vn -0.180083 -0.336157 -0.924429
vn -0.427657 -0.146626 -0.891970
vn -0.819129 0.079270 -0.568105
vn 0.921887 0.335231 -0.194282
vn 0.490522 0.807920 -0.326578
vn -0.506039 0.833478 -0.221900
vn 0.011280 0.941937 -0.335600
vn -0.868210 0.315712 -0.382801
vn 0.868210 0.315712 -0.382801
vn -0.011280 0.941937 -0.335600
vn 0.506039 0.833478 -0.221900
vn -0.490522 0.807920 -0.326578
vn -0.921887 0.335231 -0.194282
vn 0.819129 0.079270 -0.568105
vn 0.427657 -0.146626 -0.891970
vn 0.180083 -0.336157 -0.924429
vn -0.855866 -0.293440 -0.425895
vn -0.351942 -0.656962 -0.666737
vn -0.698494 -0.390150 -0.599908
vn 0.160110 -0.362916 -0.917963
vn -0.000001 0.987968 0.154661
usemtl ClipperS_4
s 1
f 209//160 211//160 210//160
f 209//161 210//161 212//161
f 213//162 214//162 211//162
f 215//163 217//163 216//163
f 218//164 220//164 219//164
f 221//165 222//165 220//165
f 223//166 225//166 224//166
f 226//167 228//167 227//167
f 226//168 227//168 219//168
f 229//169 219//169 227//169
f 219//170 229//170 218//170
f 227//171 228//171 230//171
f 230//172 228//172 215//172
f 215//173 228//173 217//173
f 218//174 231//174 220//174
f 231//175 232//175 220//175
f 232//176 233//176 220//176
f 220//177 233//177 216//177
f 215//178 216//178 233//178
f 223//179 234//179 225//179
f 220//180 225//180 234//180
f 235//181 220//181 234//181
f 236//182 220//182 235//182
f 221//183 220//183 236//183
f 223//184 224//184 237//184
f 238//185 223//185 237//185
f 239//186 238//186 237//186
f 222//187 221//187 240//187
f 240//188 239//188 222//188
f 241//189 222//189 239//189
f 239//190 237//190 241//190
f 211//191 214//191 210//191
o None_ClipperS_6
v 0.007397 0.196361 3.250000
v -0.020726 0.193686 3.247500
v -0.007397 0.196361 3.250000
v 0.020726 0.193686 3.247500
v -0.029950 0.186469 3.240000
v 0.029950 0.186469 3.240000
v -0.033242 0.175000 3.230000
v 0.036000 0.475000 0.190000
v 0.050000 0.432500 0.190000
v 0.070000 0.457500 0.190000
v -0.036000 0.475000 0.190000
v -0.070000 0.457500 0.190000
v -0.050000 0.432500 0.190000
v 0.033242 0.175000 3.230000
v 0.036000 0.441000 0.190000
v 0.030000 0.457500 0.190000
v 0.064000 0.441000 0.190000
v 0.064000 0.475000 0.190000
v 0.050000 0.482500 0.190000
v -0.064000 0.475000 0.190000
v -0.050000 0.482500 0.190000
v -0.064000 0.441000 0.190000
v -0.036000 0.441000 0.190000
v -0.030000 0.457500 0.190000
vn -0.000001 0.682907 -0.730506
vn 0.000000 0.720566 -0.693386
vn 0.000000 0.657177 -0.753736
vn 0.000000 0.682903 -0.730509
vn 0.000001 0.000000 1.000000
vn 0.000000 0.000001 1.000000
vn -0.000001 0.000000 1.000000
usemtl ClipperS_6
s 1
f 242//192 243//192 244//192
f 245//193 246//193 243//193
f 247//194 248//194 246//194
f 249//154 250//154 251//154
f 252//154 253//154 254//154
f 243//195 242//195 245//195
f 246//193 245//193 247//193
f 248//194 247//194 255//194
f 256//196 249//196 257//196
f 251//154 250//154 258//154
f 249//154 259//154 260//154
f 250//154 249//154 256//154
f 249//197 251//197 259//197
f 261//154 252//154 262//154
f 254//154 253//154 263//154
f 252//198 264//198 265//198
f 253//197 252//197 261//197
f 252//154 254//154 264//154
