# Blender OBJ File: /home/flash/doc/book/codigos/vidro.blend
# www.blender.org
mtllib vidro.mtl
o Curve_Porta
v 24.9830608368 74.0958099365 -1.25660359859
v 24.9830608368 -74.0958099365 -1.25660359859
v -24.9830608368 -74.0957946777 -1.25660359859
v -24.9830245972 74.0958328247 -1.25660359859
v 24.983089447 74.0957717896 1.25660336018
v 24.9830131531 -74.0958557129 1.25660336018
v -24.9830722809 -74.0957870483 1.25660336018
v -24.9830474854 74.0958099365 1.25660336018
vn 0.0 0.0 -1.0
vn 0.0 0.0 -1.0
vn 0.0 0.0 -1.0
vn 0.0 0.0 -1.0
vn 0.0 0.0 1.0
vn 0.0 0.0 1.0
vn 0.0 0.0 1.0
vn 0.0 0.0 1.0
vn 1.0 -2.6143865739e-07 3.55748102265e-06
vn 1.0 -2.6143865739e-07 3.55748102265e-06
vn 1.0 -2.6143865739e-07 3.55748102265e-06
vn 1.0 -2.6143865739e-07 3.55748102265e-06
vn -8.3503107362e-07 -1.0 -7.1149802352e-06
vn -8.3503107362e-07 -1.0 -7.1149802352e-06
vn -8.3503107362e-07 -1.0 -7.1149802352e-06
vn -8.3503107362e-07 -1.0 -7.1149802352e-06
vn -1.0 2.01106672648e-07 -7.11497023076e-06
vn -1.0 2.01106672648e-07 -7.11497023076e-06
vn -1.0 2.01106672648e-07 -7.11497023076e-06
vn -1.0 2.01106672648e-07 -7.11497023076e-06
vn 5.96450718149e-07 1.0 1.18582838695e-05
vn 5.96450718149e-07 1.0 1.18582838695e-05
vn 5.96450718149e-07 1.0 1.18582838695e-05
vn 5.96450718149e-07 1.0 1.18582838695e-05
usemtl Vidro
f 1//1 2//2 3//3 4//4 
f 5//5 8//6 7//7 6//8 
f 1//9 5//10 6//11 2//12 
f 2//13 6//14 7//15 3//16 
f 3//17 7//18 8//19 4//20 
f 5//21 1//22 4//23 8//24 
